<svg viewBox="0 0 24 24" fill="none" xmlns="http://www.w3.org/2000/svg" class="_rateStar_14q5j_58"><path fill-rule="evenodd" clip-rule="evenodd" d="M4.29045 23.0008L5.39402 16.2149C5.48143 15.6774 5.30892 15.1302 4.92915 14.7404L0.243578 9.93139C-0.086924 9.59218 -0.0802536 9.04888 0.258476 8.71791C0.386492 8.59283 0.550383 8.51099 0.727178 8.48388L7.09231 7.50765C7.65743 7.42098 8.14218 7.05781 8.38475 6.53937L11.2132 0.494235C11.414 0.0650805 11.9242 -0.119809 12.3527 0.0812728C12.5335 0.166088 12.679 0.311439 12.7642 0.492235L15.6142 6.54294C15.8574 7.05934 16.3412 7.42078 16.9048 7.50722L23.2727 8.48388C23.7405 8.55563 24.0616 8.99355 23.99 9.46202C23.9629 9.63907 23.8812 9.80319 23.7563 9.93139L19.0707 14.7404C18.691 15.1302 18.5185 15.6774 18.6059 16.2149L19.7099 23.0039C19.786 23.4717 19.469 23.9127 19.0019 23.9888C18.8125 24.0197 18.6182 23.9861 18.4502 23.8932L12.816 20.7796C12.2998 20.4944 11.6735 20.4948 11.1578 20.7808L5.55129 23.8895C5.13727 24.119 4.61579 23.969 4.38655 23.5544C4.29339 23.3859 4.25954 23.1909 4.29045 23.0008Z"></path></svg>