<svg xmlns="http://www.w3.org/2000/svg" width="22" height="22" fill="white" viewBox="0 0 20 20"><path fill-rule="evenodd" clip-rule="evenodd" d="M16.267 10.3242C16.0136 13.558 13.2492 16.086 9.92263 15.9595C6.76933 15.8398 4.1605 13.231 4.04078 10.0777C3.91512 6.77959 6.39891 4.03443 9.59201 3.74024L9.59201 2.20017C9.59201 2.07439 9.7375 2.00447 9.83572 2.08304L12.6276 4.31653C12.7026 4.37658 12.7026 4.49074 12.6276 4.55079L9.83572 6.78428C9.7375 6.86285 9.59201 6.79293 9.59201 6.66715L9.59201 5.05974C7.02718 5.36182 5.08 7.68045 5.37907 10.387C5.62222 12.5884 7.41156 14.3778 9.61296 14.6209C12.3777 14.9269 14.7384 12.8873 14.9568 10.2404C14.9611 10.1886 14.961 10.0833 14.9598 9.9936C14.9588 9.90914 15.0266 9.83947 15.111 9.83947L16.1205 9.83947C16.2019 9.83947 16.2685 9.90441 16.2696 9.98585C16.2712 10.1027 16.2721 10.2575 16.267 10.3242Z" fill-opacity="0.95"></path></svg>