<svg xmlns="http://www.w3.org/2000/svg" width="16" height="16" fill="currentColor" viewBox="0 0 16 16" class="index-module__globe-icon___YRHhz" aria-hidden="true"><path d="M2.1875,9.46875 C2.66651149,11.375646 4.05993394,12.9199641 5.875,13.609375 C5.71532918,13.3682174 5.56709463,13.0993298 5.4375,12.8125 C5.09087782,12.0684438 4.83582501,11.1893103 4.6875,10.234375 C4.16799569,10.1387251 3.69158182,10.0266184 3.265625,9.890625 C2.85422065,9.76919783 2.49316308,9.62672186 2.1875,9.46875 L2.1875,9.46875 Z M2.1875,6.53125 C2.49316308,6.37327814 2.85422065,6.23080217 3.265625,6.109375 C3.69158182,5.97338157 4.16799569,5.86127493 4.6875,5.765625 C4.83582501,4.8106897 5.09087782,3.93155621 5.4375,3.1875 C5.56709463,2.90067016 5.71532918,2.63178255 5.875,2.390625 C4.05993394,3.08003589 2.66651149,4.62435403 2.1875,6.53125 L2.1875,6.53125 Z M4.546875,6.8125 C4.18886094,6.88463458 3.85468568,6.96817695 3.546875,7.0625 C3.00639478,7.22975528 2.58072067,7.42404647 2.3125,7.625 C2.08632753,7.78448038 2,7.91456855 2,8 C2,8.08543145 2.08632753,8.21551962 2.3125,8.375 C2.58072067,8.57595353 3.00639478,8.77024472 3.546875,8.9375 C3.85468568,9.03182305 4.18886094,9.11536542 4.546875,9.1875 C4.5150968,8.79924356 4.49879712,8.40225364 4.5,8 C4.49879712,7.59774636 4.5150968,7.20075644 4.546875,6.8125 L4.546875,6.8125 Z M13.8125,6.53125 C13.3334885,4.62435403 11.9400661,3.08003589 10.125,2.390625 C10.2846708,2.63178255 10.4329054,2.90067016 10.5625,3.1875 C10.9091222,3.93155621 11.164175,4.8106897 11.3125,5.765625 C11.8320043,5.86127493 12.3084182,5.97338157 12.734375,6.109375 C13.1457793,6.23080217 13.5068369,6.37327814 13.8125,6.53125 L13.8125,6.53125 Z M13.8125,9.46875 C13.5068369,9.62672186 13.1457793,9.76919783 12.734375,9.890625 C12.3084182,10.0266184 11.8320043,10.1387251 11.3125,10.234375 C11.164175,11.1893103 10.9091222,12.0684438 10.5625,12.8125 C10.4329054,13.0993298 10.2846708,13.3682174 10.125,13.609375 C11.9400661,12.9199641 13.3334885,11.375646 13.8125,9.46875 L13.8125,9.46875 Z M11.453125,9.1875 C11.8111391,9.11536542 12.1453143,9.03182305 12.453125,8.9375 C12.9936052,8.77024472 13.4192793,8.57595353 13.6875,8.375 C13.9136725,8.21551962 14,8.08543145 14,8 C14,7.91456855 13.9136725,7.78448038 13.6875,7.625 C13.4192793,7.42404647 12.9936052,7.22975528 12.453125,7.0625 C12.1453143,6.96817695 11.8111391,6.88463458 11.453125,6.8125 C11.4849032,7.20075644 11.5012029,7.59774636 11.5,8 C11.5012029,8.40225364 11.4849032,8.79924356 11.453125,9.1875 L11.453125,9.1875 Z M5.71875,10.375 C5.86092125,11.1267161 6.07003072,11.8104835 6.328125,12.390625 C6.82058117,13.4397115 7.43082867,14 8,14 C8.56917135,14 9.17941885,13.4397115 9.671875,12.390625 C9.9299693,11.8104835 10.1390788,11.1267161 10.28125,10.375 C9.55987556,10.4561241 8.79041849,10.4988581 8,10.5 C7.20958153,10.4988581 6.44012446,10.4561241 5.71875,10.375 L5.71875,10.375 Z M5.5625,9.34375 C6.3236608,9.44806321 7.14782676,9.5 8,9.5 C8.85217324,9.5 9.6763392,9.44806321 10.4375,9.34375 C10.4769268,8.91365082 10.5,8.46104579 10.5,8 C10.5,7.53895421 10.4769268,7.08634918 10.4375,6.65625 C9.6763392,6.55193679 8.85217324,6.5 8,6.5 C7.14782676,6.5 6.3236608,6.55193679 5.5625,6.65625 C5.52307324,7.08634918 5.5,7.53895421 5.5,8 C5.5,8.46104579 5.52307324,8.91365082 5.5625,9.34375 L5.5625,9.34375 Z M5.71875,5.625 C6.44012445,5.54387587 7.20958152,5.50114192 8,5.5 C8.79041848,5.50114192 9.55987555,5.54387587 10.28125,5.625 C10.1390787,4.87328392 9.92996928,4.18951646 9.671875,3.609375 C9.17941884,2.56028852 8.56917134,2 8,2 C7.43082866,2 6.82058116,2.56028852 6.328125,3.609375 C6.07003072,4.18951646 5.86092125,4.87328392 5.71875,5.625 L5.71875,5.625 Z M8,15 C4.13400675,15 1,11.8659932 1,8 C1,4.13400675 4.13400675,1 8,1 C11.8659932,1 15,4.13400675 15,8 C15,11.8659932 11.8659932,15 8,15 Z"></path></svg>