<svg width="20" height="20" viewBox="0 0 20 20" fill="none" xmlns="http://www.w3.org/2000/svg" class="_sidebarIcon_1lt7b_22"><path d="M12.0508 1.25C12.8672 1.25 13.5617 1.77175 13.8191 2.49999L16.25 2.5C17.4981 2.5 18.125 3.23849 18.125 4.375V16.875C18.125 18.125 17.5045 18.75 16.25 18.75H3.75C2.50042 18.75 1.875 18.125 1.875 16.875V4.375C1.875 3.22959 2.51311 2.5 3.75 2.5L6.18091 2.49999C6.43831 1.77175 7.13284 1.25 7.94922 1.25H12.0508ZM6.18092 3.75003L3.75 3.75C3.39378 3.75 3.125 4.02484 3.125 4.375L3.2354 16.875C3.2354 17.1611 3.40408 17.5 3.75 17.5H16.25C16.5567 17.5 16.8751 17.1996 16.8751 16.875V4.375C16.8751 4.00818 16.5753 3.75 16.25 3.75L13.8191 3.75003C13.5617 4.47826 12.8672 5 12.0508 5H7.94922C7.13284 5 6.43833 4.47826 6.18092 3.75003ZM10.1314 6.3575C10.197 6.38828 10.2498 6.44109 10.2805 6.50676L11.3723 8.83964C11.4162 8.93335 11.5038 8.99898 11.606 9.01464L14.0729 9.39263C14.2421 9.41858 14.3582 9.57685 14.3323 9.74615C14.3226 9.8101 14.2931 9.86933 14.248 9.91566L12.443 11.771C12.3744 11.8415 12.3434 11.9403 12.3591 12.0373L12.7825 14.6399C12.8099 14.809 12.6953 14.9684 12.5265 14.9959C12.4578 15.0071 12.3874 14.9948 12.3266 14.9611L10.1501 13.7544C10.0567 13.7027 9.94325 13.7027 9.84988 13.7544L7.67334 14.9611C7.52366 15.0441 7.33513 14.9899 7.25225 14.84C7.21856 14.7791 7.20632 14.7086 7.2175 14.6399L7.64081 12.0373C7.65659 11.9403 7.62548 11.8415 7.55696 11.771L5.75194 9.91566C5.63256 9.79294 5.63514 9.5966 5.7577 9.47707C5.80396 9.43194 5.86315 9.40242 5.92699 9.39263L8.39395 9.01464C8.49612 8.99898 8.58375 8.93335 8.62761 8.83964L9.71945 6.50676C9.79203 6.35164 9.97649 6.28482 10.1314 6.3575ZM10.0098 8.16406L9.40789 9.45014C9.31128 9.6566 9.11915 9.80184 8.89468 9.83853L8.88787 9.83961L7.49926 10.0524L8.52668 11.1086C8.67766 11.2637 8.74702 11.4808 8.71431 11.6947L8.71328 11.7012L8.47536 13.1641L9.67577 12.4985C9.88148 12.3845 10.1309 12.3834 10.3375 12.4951L10.3438 12.4985L11.5442 13.1641L11.3062 11.7012C11.2715 11.4874 11.339 11.2697 11.4883 11.1133L11.4929 11.1086L12.5203 10.0524L11.1317 9.83961C10.9066 9.80513 10.7131 9.66159 10.6146 9.45638L10.6116 9.45014L10.0098 8.16406ZM12.0312 2.5C11.886 2.50323 11.6093 2.5045 11.2477 2.50471L11.2165 2.50472C11.2061 2.50473 11.1955 2.50473 11.1849 2.50473L11.0722 2.50473C10.4876 2.50457 9.72609 2.5023 8.94842 2.50096L8.88358 2.50085L8.78139 2.50069C8.54286 2.50032 8.30389 2.50007 8.0691 2.50001L7.96875 2.5C7.94775 2.5 7.92736 2.50045 7.90758 2.50136C7.65854 2.51773 7.44931 2.68001 7.36459 2.90353C7.35036 2.96964 7.34375 3.04354 7.34375 3.125C7.34375 3.22904 7.36036 3.33002 7.39776 3.41939C7.49148 3.5946 7.66627 3.71993 7.87201 3.74528C7.90269 3.74839 7.93492 3.75 7.96875 3.75H12.0312C12.0671 3.75 12.1011 3.74815 12.1334 3.74461C12.3312 3.71847 12.4999 3.59979 12.5945 3.43348C12.6377 3.33901 12.6562 3.232 12.6562 3.125C12.6562 3.03024 12.6429 2.9345 12.6109 2.84739C12.5087 2.6415 12.2962 2.5 12.0508 2.5H12.0312Z"></path></svg>