<svg xmlns="http://www.w3.org/2000/svg" width="20" height="20" fill="currentColor" viewBox="0 0 16 16" aria-hidden="true"><path d="M6.5,12.484375 C7.05228475,12.484375 7.5,12.9320903 7.5,13.484375 C7.5,14.0366597 7.05228475,14.484375 6.5,14.484375 C5.94771525,14.484375 5.5,14.0366597 5.5,13.484375 C5.5,12.9320903 5.94771525,12.484375 6.5,12.484375 Z M11.5,12.484375 C12.0522847,12.484375 12.5,12.9320903 12.5,13.484375 C12.5,14.0366597 12.0522847,14.484375 11.5,14.484375 C10.9477153,14.484375 10.5,14.0366597 10.5,13.484375 C10.5,12.9320903 10.9477153,12.484375 11.5,12.484375 Z M3.390625,1.5 C3.64575962,1.5 3.85669589,1.69217085 3.890625,1.9375 L4.09375,3 L4.109375,3 L5.5,10 L12.796875,10 L13.984375,4 L5.609375,4 L5.609375,3 L13.984375,3 C14.5367298,3 14.984375,3.44771525 14.984375,4 C14.984375,4.06504307 14.9780301,4.12993099 14.96875,4.1875 L13.78125,10.1875 C13.6882004,10.6622839 13.2773329,11 12.796875,11 L5.5,11 C5.01541958,11 4.60474181,10.6627458 4.515625,10.1875 L3.1875,3.53125 L2.984375,2.5 L1.984375,2.5 C1.43202015,2.5 0.984375,2.05228475 0.984375,1.5 L3.390625,1.5 L3.390625,1.5 Z"></path></svg>