<svg class="logo-module__dji-logo___TWD8X" xmlns="http://www.w3.org/2000/svg"><path d="M17.3572 17.7589c-.8982.0737-1.7965.0927-2.6964.1084-2.0694.0337-5.82742.0288-7.89628.0201-.74368-.0038-1.48736-.0081-2.23104-.0217-.53918-.0097-1.07728-.0228-1.61592-.0542-.35895-.0183-.7165-.0578-1.07077-.1183-.24013-.0403-.47477-.1084-.6992-.2028-.74477-.3255-1.1244762-.9764-1.1461737-1.7679-.0130185-.4529.0656349-.8847.1567647-1.3235.124192-.6.278252-1.1919.431859-1.7821h.000005l.016189-.0622c.30268-1.1776.857596-3.33652 1.291546-4.47564.33902-.89176.78707-1.77919 1.63816-2.34387.47572-.3157.97639-.48331 1.52696-.59397.40768-.0779.81983-.13025 1.23404-.15676.69432-.05425 1.38864-.06781 2.08405-.07974.98832-.01736 1.97661-.02116 2.96501-.02441 1.3697-.00362 2.7493-.00347 4.1221-.00332h.0002l.822.00006c-.2922 1.08488-.5848 2.16975-.8777 3.25463-.353 0-.707-.00022-1.0614-.00044-1.1157-.0007-2.2361-.0014-3.3481.00478l-.1942.00098c-.3627.00161-.7254.00321-1.08809.02668-.15139.00287-.30163.02678-.44643.07106-.19311.06672-.28857.18823-.37319.36235-.10903.22329-.17711.45744-.24567.69329l-.02881.09867c-.12096.41062-.2327.82345-.34445 1.23675-.17249.6363-.34499 1.2731-.50826 1.9116-.06075.2365-.11988.473-.17087.7122-.03803.1663-.0661.3348-.08408.5044-.01735.1866-.02278.4112.09005.5842.11283.1731.30919.217.48819.2431.20441.0261.41015.0404.61621.0428.31868.0097.63735.0113.95603.0128l.05616.0002c.92251.0047 1.84461.0047 2.76641 0 .4253 0 .8506-.0054 1.2753-.0222l.0286-.0012h.0001c.2826-.0114.5622-.0228.8392-.0905.217-.0542.3905-.1361.5386-.3151.0948-.1209.1708-.2553.2257-.3987.1402-.3548.2608-.7169.3612-1.0849.3473-1.174.6661-2.3556.985-3.53746.0627-.23246.1254-.46493.1883-.69735C17.6993 5.6607 18.4588 2.8308 19.2124 0h6.5092c-.6816 2.54078-1.3658 5.08083-2.0526 7.62016l-.0959.35309v.00008c-.4484 1.65118-.8967 3.30207-1.3838 4.94267-.2273.7659-.4546 1.5296-.7529 2.2733-.2398.5967-.5078 1.1288-1.003 1.5731-.3583.3189-.7829.5542-1.2433.6889-.5977.1866-1.2091.2566-1.8329.3076zm8.8537-12.87771h6.5092c-.7022 2.61419-1.3984 5.22981-2.0884 7.84691l-.094.3594v.0001c-.3109 1.1891-.6218 2.3779-.9805 3.5542-.3835 1.2584-.8549 2.6037-1.5416 3.7428-.7161 1.1934-1.6436 2.1242-2.9292 2.7203-.5078.2332-1.0405.4079-1.5877.5208-.7827.1659-1.5687.2343-2.3645.2793-1.7822.0982-5.3735.096-7.4995.0947l-.6181-.0003 1.2064-4.4746.2789.0001c.821.0003 1.6416.0006 2.4626-.0223.8815-.0244 1.8519-.0716 2.7203-.2772.9509-.2246 1.6686-.6108 2.2967-1.3843.5728-.7052.9574-1.5839 1.2731-2.4133.5755-1.5145 1.1657-3.6831 1.5812-5.2427.4272-1.60533.8397-3.21474 1.252-4.8237l.1231-.48021zm14.4659-.00582h-6.5081L30.6569 17.8922h6.5082l3.5117-13.01683z"></path></svg>