<svg width="800" height="64" viewBox="0 0 800 64" xmlns="http://www.w3.org/2000/svg"><path d="M731.4266373 45.0734594V0h-1.2936011L687.9986 46.8087086v6.951753h32.9850166v10.2394051h10.4430207V53.7604616h7.5768066v-8.6870022h-7.5768066zm-10.4430207 0l-20.0490055.3656931 20.3280175-23.7700475-.279012 23.4043544zm55.8205184-12.4335631h-21.3426065V4.0262086h21.3426065c6.4680054 0 11.1822215 1.0038633 14.139024 3.015175 2.956803 2.0113117 4.435204 5.5176626 4.435204 10.5154674 0 5.0587537-1.543625 8.8375817-4.620004 11.3328989-3.0836264 2.5024876-7.7326186 3.7501464-13.954224 3.7501464zM777.2679471 0h-26.3358342v63.9998667h4.5294156V36.6625196h21.8064186c15.1536129 0 22.7304199-6.3673611 22.7304199-19.1056686 0-6.2777305-1.86612-10.7736037-5.591111-13.4876197C790.678641 1.3588006 784.9643303 0 777.2679471 0zM228.652417 53.6536c-12.196513 0-22.119163-9.7152001-22.119163-21.6568 0-11.9418667 9.92265-21.6568 22.119163-21.6568s22.11943 9.7149333 22.11943 21.6568c0 11.9415999-9.922917 21.6568-22.11943 21.6568zm0-53.6536c-18.01997 0-32.680212 14.3530667-32.680212 31.9968 0 17.6434667 14.660242 31.9968 32.680212 31.9968 18.01997 0 32.680479-14.3533333 32.680479-31.9968C261.332896 14.3530667 246.672387 0 228.652417 0zM32.6799453 53.6602666c-12.1962463 0-22.119163-9.7152-22.119163-21.6565333 0-11.9418666 9.9229167-21.6573333 22.119163-21.6573333 12.1967796 0 22.1194296 9.7154667 22.1194296 21.6573333 0 11.9413333-9.92265 21.6565333-22.1194296 21.6565333zm0-53.6536C14.6599754.0066667 0 14.36 0 32.0037334 0 49.6464 14.6599754 64 32.6799453 64s32.6804785-14.3536 32.6804785-31.9962667C65.3604238 14.36 50.6999152.0066667 32.6799453.0066667zM175.12984 7.4245334V7.4248l-20.585032 16.9114667-.000267.0002666L133.959509 7.4248v-.0002667l-6.571189-5.3986666h-3.989593v61.4770666h10.560782V20.9226667L146.329888 31.0856l-.000266.0002667 8.215186 6.7490667 8.214919-6.7490667-.000266-.0002667 12.370379-10.1629333v42.5802666h10.560782V2.0258666h-3.989593l-6.571189 5.3986667zm-62.994561 32.1735999c-1.952797-4.4111998-7.95092-10.4341332-19.837567-15.2146665-.920265-.4250667-4.8045252-2.3325334-6.8175885-5.0984-1.7378638-2.3869334-1.0997316-5.7445334 1.3165311-7.4754667.8946651-.6410667 1.9373301-1.0709333 3.0346615-1.2170667C94.0830424 10.0250667 98.0337024 13.4472 99.9526326 15.46l8.0679864-6.6285333c-3.142395-3.408-10.3093159-9.6824-19.6061005-8.4432C82.190529 1.2173333 76.8913379 5.3336 74.5852083 11.1317333c-2.7887952 7.0112.1615997 14.1813334 8.0943867 19.6704001 1.6021305 1.1085332 5.7698567 3.1677332 5.7698567 3.1677332 13.5045113 5.3994668 14.2309093 9.3493333 14.0471763 11.8722667-.574399 5.0357332-4.274926 6.7805333-7.2869208 7.3565335-5.5727907 1.0602666-13.1893111-1.2397334-16.296506-6.9386669l-.0570666.0298669-8.0997199 6.6544c5.0135917 7.4138667 13.7714436 10.8050665 21.6546304 10.8050665 6.1509232 0 15.6722399-2.8250666 19.1711679-11.3093332 1.911197-4.5890667 1.968797-10.1205333.553066-12.8418669zM336.9815491 19.903511c0 6.9388387-4.1022414 10.2256569-12.6676358 10.2256569h-20.1360019V9.7673643h20.1360019c8.5653944 0 12.6676358 3.2868183 12.6676358 10.1361467zm4.0986682-15.1558845c-2.4584863-2.101702-4.6453954-3.4694194-8.3831518-4.1998234-2.4584864-.4582928-4.827638-.4582928-8.0186671-.4582928H293.3327v63.9103564h10.8452114V39.8070219h20.500487c7.1074548 0 11.7564235-1.4608082 15.9479993-4.8371366 4.4667265-3.5625102 6.8323047-8.7684294 6.8323047-15.1558846 0-7.3971315-2.4584863-11.6900456-6.3784851-15.0663742zm44.2313103 48.9370729c-11.9386661 0-21.597515-9.677854-21.597515-21.640011 0-11.9585764 9.6588489-21.6364304 21.597515-21.6364304 11.9350924 0 21.5939414 9.677854 21.5939414 21.6364304 0 11.962157-9.658849 21.640011-21.5939414 21.640011zm0-53.5951891c-17.5846082 0-31.8924258 14.3359701-31.8924258 31.9551781 0 17.6227887 14.3078176 31.9551783 31.8924258 31.9551783 17.5881814 0 31.8924254-14.3323896 31.8924254-31.9551783 0-17.619208-14.304244-31.9551781-31.8924254-31.9551781zm70.6993434 53.5056788c-11.935093 0-21.593941-9.6814345-21.593941-21.6400109 0-11.8690662 9.658848-21.6400109 21.593941-21.6400109 6.196243 0 11.845758 2.7390153 15.765757 6.9388387l8.018667-6.5736367C473.963537 4.1998234 465.398143 0 456.010871 0c-17.584608 0-31.892426 14.3359701-31.892426 31.9551782 0 17.6192081 14.307818 31.9551783 31.892426 31.9551783 10.662969 0 20.139575-5.2954295 25.878425-13.3298744l-7.925759-6.5736367c-3.919999 5.7537221-10.480726 9.5883437-17.952666 9.5883437zM549.483372.0895103h-16.219577l-31.163456 28.2136475.092908-28.2136475h-10.934546v63.8208462h10.934546l-.364485-20.3618038 12.117335-11.1386621 22.41582 31.5899761h13.121455l-27.243457-38.8009262L549.483372.0895103zm54.779931 0h-45.013881v63.9103564h46.289577v-9.3126518h-35.444366v-18.260102h30.888306v-9.4021623h-30.888306V9.677854h34.16867V.0895103zm62.401953 0h-53.125455v10.8665508h20.957879v53.0438056h11.209697V10.9560611h20.957879V.0895103z" fill="#FFF"/></svg>