<svg width="16" height="13" viewBox="0 0 16 13" xmlns="http://www.w3.org/2000/svg" xmlns:xlink="http://www.w3.org/1999/xlink"><defs><path d="M15.4599109 4.8c-.0668151 1.3625-1.0824053 3.228125-3.0534521 5.596875-2.0345212 2.475-3.7550111 3.7125-5.1648107 3.7125-.8719376 0-1.610245-.753125-2.214922-2.259375-1.1759466-4.0375-1.6770602-6.403125-2.6492205-6.403125-.1135858 0-.5044544.221875-1.1759466.659375L.5 5.25625c1.7238307-1.415625 3.370824-2.990625 4.403118-3.078125 1.1659243-.10625 1.8808464.640625 2.1514477 2.234375.9587973 5.671875 1.3830735 6.528125 3.1269488 3.959375.6247216-.925.9621381-1.628125 1.0089087-2.1125.1603563-1.434375-1.1959911-1.3375-2.1146994-.96875.7349666-2.253125 2.1414254-3.346875 4.2160357-3.284375 1.5300668.0375 2.2550111.971875 2.1681514 2.79375z" id="a"/></defs><g transform="translate(0 -2)" fill="none" fill-rule="evenodd"><mask id="b" fill="#fff"><use xlink:href="#a"/></mask><g mask="url(#b)" fill="#6C7073"><path d="M0 0h16v16H0z"/></g></g></svg>