<svg width="16" height="14" viewBox="0 0 16 14" xmlns="http://www.w3.org/2000/svg" xmlns:xlink="http://www.w3.org/1999/xlink"><defs><path d="M8.0033333 4.40625c-2.12 0-3.83 1.603125-3.83 3.590625 0 1.9875 1.71 3.590625 3.83 3.590625s3.83-1.603125 3.83-3.590625c0-1.9875-1.71-3.590625-3.83-3.590625zm0 5.925c-1.37 0-2.49-1.046875-2.49-2.334375S6.63 5.6625 8.0033333 5.6625c1.3733334 0 2.49 1.046875 2.49 2.334375s-1.12 2.334375-2.49 2.334375zm4.88-6.071875c0 .465625-.4.8375-.8933333.8375-.4966667 0-.8933333-.375-.8933333-.8375s.4-.8375.8933333-.8375.8933333.375.8933333.8375zm2.5366667.85C15.3633333 3.9875 15.09 2.99375 14.2133333 2.175 13.34 1.35625 12.28 1.1 11.0833333 1.04375 9.85.978125 6.1533333.978125 4.92 1.04375c-1.1933333.053125-2.2533333.309375-3.13 1.128125-.8766667.81875-1.1466667 1.8125-1.2066667 2.934375-.07 1.15625-.07 4.621875 0 5.778125C.64 12.00625.9133333 13 1.79 13.81875c.8766667.81875 1.9333333 1.075 3.13 1.13125 1.2333333.065625 4.93.065625 6.1633333 0 1.1966667-.053125 2.2566667-.309375 3.13-1.13125C15.0866667 13 15.36 12.00625 15.42 10.884375c.07-1.15625.07-4.61875 0-5.775zM13.8266667 12.125c-.26.6125-.7633334 1.084375-1.42 1.33125-.9833334.365625-3.3166667.28125-4.4033334.28125-1.0866666 0-3.4233333.08125-4.4033333-.28125-.6533333-.24375-1.1566667-.715625-1.42-1.33125-.39-.921875-.3-3.109375-.3-4.128125 0-1.01875-.0866667-3.209375.3-4.128125.26-.6125.7633333-1.084375 1.42-1.33125.9833333-.365625 3.3166667-.28125 4.4033333-.28125 1.0866667 0 3.4233334-.08125 4.4033334.28125.6533333.24375 1.1566666.715625 1.42 1.33125.39.921875.3 3.109375.3 4.128125 0 1.01875.09 3.209375-.3 4.128125z" id="a"/></defs><g transform="translate(0 -1)" fill="none" fill-rule="evenodd"><mask id="b" fill="#fff"><use xlink:href="#a"/></mask><g mask="url(#b)" fill="#6C7073"><path d="M0 0h16v16H0z"/></g></g></svg>