<svg width="14" height="14" viewBox="0 0 14 14" xmlns="http://www.w3.org/2000/svg" xmlns:xlink="http://www.w3.org/1999/xlink"><defs><path d="M15 1.771875V14.225c0 .428125-.346875.771875-.771875.771875h-3.56875v-5.41875h1.81875l.271875-2.1125h-2.09375v-1.35c0-.6125.16875-1.028125 1.046875-1.028125h1.11875V3.196875c-.19375-.025-.85625-.084375-1.63125-.084375-1.6125 0-2.71875.984375-2.71875 2.79375v1.559375h-1.825v2.1125h1.825V15h-6.7C1.346875 15 1 14.653125 1 14.228125V1.771875C1 1.346875 1.346875 1 1.771875 1H14.225c.428125 0 .775.346875.775.771875z" id="a"/></defs><g transform="translate(-1 -1)" fill="none" fill-rule="evenodd"><mask id="b" fill="#fff"><use xlink:href="#a"/></mask><g mask="url(#b)" fill="#6C7073"><path d="M0 0h16v16H0z"/></g></g></svg>