<svg width="48" height="48" viewBox="0 0 48 48" xmlns="http://www.w3.org/2000/svg" xmlns:xlink="http://www.w3.org/1999/xlink"><defs><path d="M35 0H5C2.2421875 0 0 2.2421875 0 5v22.5c0 2.7578125 2.2421875 5 5 5h7.5v6.5625c0 .5546875.453125.9375.9375.9375.1875 0 .3828125-.0546875.5546875-.1875L23.75 32.5H35c2.7578125 0 5-2.2421875 5-5V5c0-2.7578125-2.2421875-5-5-5zm2.5 27.5c0 1.375-1.125 2.5-2.5 2.5H22.9140625L22.25 30.5 15 35.9375V30H5c-1.375 0-2.5-1.125-2.5-2.5V5c0-1.375 1.125-2.5 2.5-2.5h30c1.375 0 2.5 1.125 2.5 2.5v22.5zm-11.578125-8.9609375C24.453125 20.265625 22.296875 21.25 20 21.25s-4.453125-.984375-5.921875-2.703125c-.4453125-.5234375-1.234375-.578125-1.7578125-.140625-.53125.453125-.5859375 1.234375-.140625 1.765625C14.1171875 22.4453125 16.96875 23.75 20 23.75s5.8828125-1.3046875 7.828125-3.5859375c.453125-.5234375.3828125-1.3125-.140625-1.765625-.5234375-.4453125-1.3125-.3828125-1.765625.140625zM15 14.375c1.0390625 0 1.875-.8359375 1.875-1.875s-.8359375-1.875-1.875-1.875-1.875.8359375-1.875 1.875.8359375 1.875 1.875 1.875zm10 0c1.0390625 0 1.875-.8359375 1.875-1.875s-.8359375-1.875-1.875-1.875-1.875.8359375-1.875 1.875.8359375 1.875 1.875 1.875z" id="a"/></defs><g transform="translate(4 4)" fill="none" fill-rule="evenodd"><mask id="b" fill="#fff"><use xlink:href="#a"/></mask><g mask="url(#b)" fill="#3B3E40" fill-rule="nonzero"><path d="M0 0h40v40H0z"/></g></g></svg>