<svg width="42" height="24" viewBox="0 0 42 24" xmlns="http://www.w3.org/2000/svg" xmlns:xlink="http://www.w3.org/1999/xlink"><defs><path d="M16.6189343 12.9629248L19.7143721 0h6.7801256l-3.5233383 14.7457808c-.6782355 2.8458762-2.7926034 3.5300142-4.7472433 3.5300142H2.5999721c-1.7215345 0-3.162937-.732411-2.3823378-4.0192348l1.4083624-5.882005c.7116811-2.9833934 2.9286154-3.6638805 4.5317728-3.6638805h10.9056868l-.8793143 3.6754417h-5.5677745c-.8183016 0-1.2668775.176663-1.4949155 1.1323874l-.899787 3.7571814c-.3204694 1.3453565.150201 1.4388601 1.1361357 1.4388601h5.1015636c.9338407 0 1.7557909-.0592257 2.15957-1.7516205zm18.3955325-8.2978864L31.8239625 18.233607h6.5867494L41.6 4.6650384h-6.5855332zM24.2924265 15.8597108c-.6062769 2.5406205-2.3551759 3.3973649-4.1138046 3.5446179-.1741196.0217026-5.0873746-.0028396-5.0873746-.0028396L13.9863275 24h9.2380706c2.4190266 0 5.9922292-1.2382635 7.2700525-6.5813551l3.0684786-12.7536065h-6.5857359l-2.6847668 11.1946724z" id="a"/></defs><g fill="none" fill-rule="evenodd"><mask id="b" fill="#fff"><use xlink:href="#a"/></mask><use fill="#3B3E40" fill-rule="nonzero" xlink:href="#a"/><g mask="url(#b)" fill="#6C7073"><path d="M0 0h42v24H0z"/></g></g></svg>