<svg width="651" height="64" viewBox="0 0 651 64" xmlns="http://www.w3.org/2000/svg" xmlns:xlink="http://www.w3.org/1999/xlink"><defs><path id="a" d="M0 0h88.045082v64H0z"/></defs><g fill="none" fill-rule="evenodd"><path d="M10.8291267 54.3987451h7.6428302c8.0067744 0 14.1010573-2.1045318 18.3791868-6.4928574 4.0033872-4.0190466 6.0050806-8.7730661 6.0050806-15.9040952 0-7.0413981-2.0016934-11.7954175-6.0050806-15.9076801-4.1853593-4.2054787-10.3724124-6.3996415-18.3791868-6.3996415h-7.6428302v44.7042742zM19.1070753 64H0V0h19.1070753c10.1904401 0 18.3791869 2.9291356 24.6590098 8.7802364 6.1870531 5.9407316 9.3697814 13.6203014 9.3697814 23.2215561 0 9.5976696-3.0899582 17.3704555-9.2770112 23.1283403C37.5790321 61.0744496 29.3902856 64 19.1070753 64zm61.9169146 0c-8.3707186 0-18.9251031-4.9368664-21.1087689-18.7435997l10.9183289-.093216c1.8197214 6.2203797 6.2798229 7.500308 9.7372938 7.500308h.4531462c4.824046-.182847 10.1904402-4.4815416 10.1904402-10.2394264V0h11.1930709v42.6965437C102.225529 54.488376 92.7629774 64 81.0239899 64zm36.2124571 0h10.829127V.0035852h-10.829127V64zM224.5423559.0895105h-4.1456856l-6.8143807 5.5711329-21.2701118 17.6192447-21.2737229-17.6192447-6.8107693-5.571133H160.082V64h10.9564549V19.720951l21.2737229 17.6192447 21.2701118-17.6192447V64h10.9600663V.0895105zM239.7275545 64h10.960066V.0895105h-10.960066V64zM294.01148 53.5917203c-12.065101 0-21.82624-9.6778742-21.82624-21.6364755 0-11.869091 9.761139-21.640056 21.82624-21.640056 6.261863 0 11.971209 2.739021 15.929111 6.9388531l8.103588-6.5736503C312.15066 4.1998322 303.494555 0 294.01148 0c-17.774447 0-32.230178 14.3324196-32.230178 31.9552448 0 17.6192448 14.455731 31.9552448 32.230178 31.9552448 10.772282 0 20.34925-5.2954405 26.152487-13.3299021l-8.013307-6.5736504c-3.957902 5.7501538-10.58811 9.5847832-18.13918 9.5847832zM526.452481 64h4.486016V0h-4.486016v64zM452.330864 0v64h4.119663l-.183176-54.3982073L507.283655 64h1.558791V.0932213h-4.123255l-.549528 54.4914286L453.979447 0h-1.648583zm-21.9056913 64h4.4860154V0h-4.4860154v64zM410.6134343 0l-28.119307 24.9617927L354.4682038.0932213 354.3784116 0H352.1803v64h4.3064311V13.9903641l-.183176-6.2171428 25.278284 22.4878432.0897921.0932211h1.3720238l25.6482277-22.5810643-.0933838 6.2171428V64h4.2130471V0h-2.1981117z" fill="#141414" fill-rule="nonzero"/><g transform="translate(562.9549)"><mask id="b" fill="#fff"><use xlink:href="#a"/></mask><path d="M38.8317613 62.6811597v-3.8736613H12.1477459l-3.813989.1760755-.8865698.0863114.7961745-.7008496c1.1229885-.9977613 2.1590584-1.9955226 3.104733-2.9967362l16.3128861-17.1656374c1.8322443-2.0542144 3.1325469-3.5802021 3.9009075-4.5779634 1.359407-1.7020635 2.4823956-3.345435 3.3689655-4.9301147 2.1868723-3.8149697 3.282047-7.5712475 3.282047-11.2688335 0-2.4063655-.3998256-4.6228456-1.1994769-6.6459879-.7961746-2.0265947-1.9365468-3.7700876-3.4141633-5.2373836-3.0734423-2.9967364-7.1516638-4.4916521-12.2311878-4.4916521-5.0864774 0-9.2829082 1.5259879-12.5927692 4.5779636-3.1916515 2.7585165-5.20121 6.5147943-6.0251985 11.2688334l-.0903953.3521511 4.0782215.7043021.0903953-.2658396c1.5958258-8.451625 6.4389311-12.6739851 14.5397462-12.6739851 4.1929541 0 7.325501 1.025381 9.3976409 3.0795954 2.0651862 2.0542144 3.1012562 5.164882 3.1012562 9.3320027 0 3.3454349-.8274653 6.5458665-2.4823956 9.5978423-1.4776166 2.5237491-3.6053842 5.3098853-6.3833033 8.3618611L.0903954 61.8007821 0 61.8870936v.7940661h38.8317613zm30.949981-33.5406608l-5.7644428-2.6411327c-7.0334544-3.1693595-10.5484433-7.3088605-10.5484433-12.4150506 0-3.2280513 1.3733141-5.7241808 4.1234193-7.4814835 2.7466283-1.7607552 6.1295007-2.6411328 10.1486175-2.6411328 2.6597099 0 5.4098148.7319217 8.2468384 2.1992178 2.2459772.9977612 4.2555355 2.4650573 6.0286754 4.401888l.354628.3521511 2.5693142-2.90352-.4415466-.6179905c-1.4185119-1.467296-2.5275934-2.5099393-3.323768-3.1244774-.7996513-.6179905-1.7905235-1.1910991-2.9726165-1.7193257C74.7743474.8510316 71.1689632-.0017262 67.386265-.0017262c-2.4823956 0-4.9926051.3832232-7.5341057 1.1462171-2.5415002.762994-4.5232445 1.788375-5.9417565 3.0795954-3.1916515 2.8759002-4.7874775 6.1937155-4.7874775 9.9465408 0 6.811706 4.3737449 12.2389751 13.1212345 16.2887121l5.7644426 2.5513688c10.4024202 4.8161835 15.6036301 9.7739179 15.6036301 14.880108 0 3.8149696-1.4185117 6.7806339-4.2555355 8.89354-2.600605 2.1715981-6.0008612 3.2556709-10.1972921 3.2556709-2.1868722 0-4.4606634-.2658394-6.8248497-.7940661-2.3641865-.5282264-4.4050355-1.2014565-6.1190708-2.0231421-1.4185116-.7043022-2.6006049-1.436224-3.5462795-2.2026704-.9456744-.7595414-2.2146863-1.9920702-3.8105122-3.6975859-.4137326-.3486987-.7405464-.7008496-.976965-1.0564531l-2.8370239 3.1693592.2677094.4419152c1.2411979 1.5846798 2.5554074 2.9207822 3.9461053 4.004855 1.387221 1.0875253 2.9691398 2.0714768 4.7422797 2.9484018C58.2563337 62.9435469 63.3393345 64 69.2498003 64c5.3785241 0 9.870478-1.4638435 13.4758622-4.401888 3.5462796-2.993284 5.3194195-6.8945651 5.3194195-11.707296 0-3.7562779-1.6723142-7.2052867-5.009989-10.3435739-3.3411516-3.1382872-7.7566176-5.9416858-13.2533507-8.4067432z" fill="#141414" fill-rule="nonzero" mask="url(#b)"/></g></g></svg>