<svg width="48" height="48" viewBox="0 0 48 48" xmlns="http://www.w3.org/2000/svg" xmlns:xlink="http://www.w3.org/1999/xlink"><defs><path d="M36.5714287.3636364H3.3246753C1.4891775.3636364 0 1.9342532 0 3.8701299v25.7142857c0 1.9358766 1.4891775 3.5064935 3.3246753 3.5064935h33.2467534c1.8354978 0 3.3246752-1.5706169 3.3246752-3.5064935V3.8701299c0-1.9358767-1.4891774-3.5064935-3.3246752-3.5064935zM3.3246753 2.7012987h33.2467534c.6095237 0 1.108225.525974 1.108225 1.1688312v3.5064935H2.2164502V3.8701299c0-.6428572.4987013-1.1688312 1.1082251-1.1688312zm33.2467534 28.0519481H3.3246753c-.6095238 0-1.108225-.5259741-1.108225-1.1688312V14.3896104h35.4632034v15.1948052c0 .6428571-.4987013 1.1688312-1.108225 1.1688312zm-23.2727274-6.1363637v.5844156c0 .4821429-.374026.8766234-.8311689.8766234h-4.987013c-.4571428 0-.8311688-.3944805-.8311688-.8766234v-.5844156c0-.4821429.374026-.8766234.8311689-.8766234h4.9870129c.4571429 0 .8311689.3944805.8311689.8766234zm13.2987014 0v.5844156c0 .4821429-.374026.8766234-.831169.8766234h-9.4199133c-.4571429 0-.8311689-.3944805-.8311689-.8766234v-.5844156c0-.4821429.374026-.8766234.8311689-.8766234h9.4199133c.457143 0 .831169.3944805.831169.8766234z" id="a"/></defs><g transform="translate(4 7)" fill="none" fill-rule="evenodd"><mask id="b" fill="#fff"><use xlink:href="#a"/></mask><g mask="url(#b)"><path fill="#3B3E40" fill-rule="nonzero" d="M0-3.220779h39.8961039v39.8961039H0z"/></g></g></svg>