<svg width="16" height="14" viewBox="0 0 16 14" xmlns="http://www.w3.org/2000/svg" xmlns:xlink="http://www.w3.org/1999/xlink"><defs><path d="M14.3553125 4.741125c.0101562.142125.0101562.2842812.0101562.4264062 0 4.335-3.2994687 9.3299375-9.3299374 9.3299375-1.857875 0-3.58375-.5380937-5.0355313-1.4720625.2639687.0304375.51775.0405938.791875.0405938 1.5329687 0 2.9441562-.51775 4.0710625-1.401-1.441625-.0304688-2.64975-.974625-3.066-2.274125.2030625.0304375.4060937.05075.6193125.05075.2944063 0 .5888438-.040625.8629375-.1116562C1.7766563 9.025375.6497187 7.7055938.6497187 6.1116875v-.0405938c.4365313.2436563.9441876.3959376 1.4822188.4162188-.88325-.5888437-1.4619062-1.5939062-1.4619062-2.7309687 0-.609125.1624062-1.1675.4466874-1.6548125C2.7309376 4.091375 5.1573438 5.3908438 7.878125 5.533c-.05075-.2436563-.0812187-.4974375-.0812187-.75125 0-1.807125 1.4619375-3.2791875 3.2791875-3.2791875.9441562 0 1.7969375.3959375 2.3959375 1.0355312.7410937-.142125 1.45175-.41625 2.0812187-.791875-.2436875.7614376-.7614375 1.4010313-1.441625 1.8070938.6599063-.0710312 1.2995-.2538125 1.8883125-.5075938-.446625.6497188-1.0050312 1.228375-1.644625 1.6954063z" id="a"/></defs><g transform="translate(0 -1)" fill="none" fill-rule="evenodd"><mask id="b" fill="#fff"><use xlink:href="#a"/></mask><g mask="url(#b)" fill="#6C7073"><path d="M0 0h16v16H0z"/></g></g></svg>