<svg width="350" height="28" viewBox="0 0 350 28" xmlns="http://www.w3.org/2000/svg"><path d="M319.9991663 19.7196385V0h-.5659505L300.9994 20.47881v3.0413919h14.4309448v4.4797398h4.5688215v-4.4797398h3.3148529v-3.8005634h-3.3148529zm-4.5688215 0l-8.77144.1599907 8.8935077-10.3993957-.1220677 10.239405zm24.4214768-5.4396839h-9.3373904V1.7614663h9.3373904c2.8297523 0 4.8922219.4391901 6.1858229 1.319139 1.2936012.8799489 1.9404017 2.4139774 1.9404017 4.600517 0 2.2132047-.6753359 3.866442-2.0212518 4.9581433-1.3490864 1.0948383-3.3830205 1.640689-6.1049728 1.640689zM340.0547394 0h-11.5219275v27.9999417h1.9816193V16.0398523h9.5403082c6.6297056 0 9.9445585-2.7857205 9.9445585-8.35873 0-2.746507-.8164272-4.7134516-2.4461109-5.9008336C345.9219179.5944753 343.421907 0 340.0547394 0zM100.035432 23.47345c-5.335974 0-9.6771334-4.2504-9.6771334-9.47485 0-5.2245667 4.3411594-9.47485 9.6771334-9.47485 5.335975 0 9.677251 4.2502833 9.677251 9.47485 0 5.22445-4.341276 9.47485-9.677251 9.47485zm0-23.47345c-7.8837364 0-14.2975923 6.2794667-14.2975923 13.9986 0 7.7190167 6.4138559 13.9986 14.2975923 13.9986 7.883737 0 14.29771-6.2795833 14.29771-13.9986 0-7.7191333-6.413973-13.9986-14.29771-13.9986zM14.297476 23.4763666c-5.3358577 0-9.6771337-4.2504-9.6771337-9.4747333 0-5.2245666 4.341276-9.4750833 9.6771337-9.4750833 5.3360911 0 9.6772505 4.2505167 9.6772505 9.4750833 0 5.2243333-4.3411594 9.4747333-9.6772505 9.4747333zm0-23.47345C6.4137393.0029167 0 6.2825 0 14.0016334 0 21.7203 6.4137392 28 14.297476 28c7.8837369 0 14.2977094-6.2797 14.2977094-13.9983667 0-7.7191333-6.4139725-13.9987166-14.2977094-13.9987166zm62.321829 3.2453167V3.24835l-9.0059515 7.3987667-.0001167.0001166L58.6072852 3.24835v-.0001167L55.73239.8863167h-1.7454471v26.8962166h4.6203423V9.1536667l5.4120409 4.4462833-.0001167.0001167 3.5941441 2.9527167 3.5940272-2.9527167-.0001167-.0001167 5.412041-4.4462833v18.6288666h4.6203422V.8863167h-1.745447L76.619305 3.2482333zm-27.5601205 14.07595c-.8543485-1.9299-3.4785276-4.5649333-8.6789355-6.6564166-.402616-.1859667-2.1019798-1.0204834-2.982695-2.23055-.7603154-1.0442834-.4811325-2.5132334.5759824-3.2705167.391416-.2804667.8475819-.4685333 1.3276644-.5324667 1.8601302-.2482666 3.588544 1.2489167 4.4280759 2.1295167l3.5297441-2.8999833c-1.3747976-1.491-4.5103257-4.23605-8.577669-3.6939-2.7229953.3627166-5.0413914 2.1635833-6.0503231 4.7002666-1.220098 3.0674.0706998 6.2043334 3.5412941 8.6058001.7009321.4849832 2.5243123 1.3858832 2.5243123 1.3858832 5.9082235 2.3622668 6.226023 4.0903333 6.1456398 5.1941167-.2512996 2.2031333-1.8702803 2.9664834-3.188028 3.2184834-2.438096.4638666-5.7703236-.5423834-7.1297214-3.0356667l-.0249666.0130667-3.5436275 2.9113c2.1934464 3.2435667 6.0250066 4.7272166 9.4739008 4.7272166 2.6910289 0 6.8566052-1.2359666 8.387386-4.9478333.8361487-2.0077166.8613486-4.4277333.2419663-5.6183167zm98.370287-8.6163973c0 3.035742-1.7947306 4.473725-5.5420907 4.473725H133.07788V4.2732219h8.8095008c3.7473601 0 5.5420907 1.437983 5.5420907 4.4345642zm1.7931673-6.6306994c-1.0755877-.9194946-2.0323605-1.517871-3.6676289-1.8374228-1.0755878-.200503-2.1120916-.200503-3.5081668-.200503H128.3331v27.9607809h4.74478V17.4155721h8.9689631c3.1095114 0 5.1434352-.6391036 6.9772497-2.1162473 1.9541928-1.5585982 2.9891333-3.8361878 2.9891333-6.6306995 0-3.236245-1.0755878-5.114395-2.7905873-6.5915387zm19.3511983 21.4099694c-5.2231664 0-9.4489128-4.2340611-9.4489128-9.4675048 0-5.2318772 4.2257464-9.4659383 9.4489128-9.4659383 5.2216029 0 9.4473493 4.2340611 9.4473493 9.4659383 0 5.2334437-4.2257464 9.4675048-9.4473493 9.4675048zm0-23.4478952c-7.6932661 0-13.9529363 6.2719869-13.9529363 13.9803904 0 7.70997 6.2596702 13.9803905 13.9529363 13.9803905 7.6948293 0 13.9529361-6.2704205 13.9529361-13.9803905 0-7.7084035-6.2581068-13.9803904-13.9529361-13.9803904zm30.9309627 23.4087345c-5.221603 0-9.4473494-4.2356276-9.4473494-9.4675048 0-5.1927165 4.2257464-9.4675048 9.4473494-9.4675048 2.7108562 0 5.1825191 1.1983192 6.8975187 3.035742l3.5081668-2.8759661C207.3590913 1.8374227 203.6117313 0 199.5047998 0c-7.693266 0-13.9529362 6.271987-13.9529362 13.9803905s6.2596702 13.9803904 13.9529362 13.9803904c4.6650489 0 8.8110642-2.3167504 11.3218111-5.83182l-3.4675196-2.875966c-1.7149996 2.5172534-4.5853179 4.1949004-7.8542915 4.1949004zM240.399019.0391608h-7.096065l-13.6340117 12.3434708.0406471-12.3434708h-4.7838639v27.9216201h4.7838639l-.1594621-8.9082891 5.3013341-4.8731647 9.8069206 13.8206146h5.740637l-11.919013-16.9754052L240.399019.0391608zm23.96622 0h-19.693573v27.9607809h20.25169v-4.0742852h-15.50691v-7.9887946h13.513634v-4.113446h-13.513634V4.2340611h14.948793V.0391608zm27.300854 0h-23.242386v4.754116h9.169072v23.2066649h4.904242V4.7932767h9.169072V.0391607z" fill="#FFF"/></svg>