<svg width="50" height="48" viewBox="0 0 50 48" fill="none" xmlns="http://www.w3.org/2000/svg"><path fill-rule="evenodd" clip-rule="evenodd" d="M3.40002 8.5c0-1.49117 1.20884-2.7 2.7-2.7H31.1c1.4912 0 2.7 1.20883 2.7 2.7v5.3h7.0298c1.1367 0 2.2248.4607 3.0159 1.2769l4.5702 4.7153c.7594.7835 1.1841 1.8319 1.1841 2.9231V34c0 1.215-.9849 2.2-2.2 2.2h-.92c.0787-.3877.12-.789.12-1.2 0-.411-.0413-.8123-.12-1.2h.72V23.2H33.8v10.6h.92c-.0787.3877-.12.789-.12 1.2 0 .411.0413.8123.12 1.2H21.48c.0787-.3877.12-.789.12-1.2 0-.411-.0413-.8123-.12-1.2h9.92V8.5c0-.16568-.1343-.3-.3-.3H6.10002c-.16568 0-.3.13432-.3.3v6c0 .6627-.53725 1.2-1.2 1.2-.66274 0-1.2-.5373-1.2-1.2v-6zM9.72 33.8H5.80002v-6.3c0-.6627-.53725-1.2-1.2-1.2-.66274 0-1.2.5373-1.2 1.2V34c0 1.215.98498 2.2 2.2 2.2H9.72c-.07871-.3877-.12002-.789-.12002-1.2 0-.411.04131-.8123.12002-1.2zm36.3304-13l-3.928-4.0527c-.3391-.3499-.8054-.5473-1.2926-.5473H33.8v4.6h12.2504zM.0999756 18.5c0-.6627.5372584-1.2 1.2000044-1.2H15.6c.6627 0 1.2.5373 1.2 1.2s-.5373 1.2-1.2 1.2H1.29998c-.662746 0-1.2000044-.5373-1.2000044-1.2zM4.10002 22.3c-.66274 0-1.2.5373-1.2 1.2s.53726 1.2 1.2 1.2H15.6c.6628 0 1.2-.5373 1.2-1.2s-.5372-1.2-1.2-1.2H4.10002z" fill="#3B3E40"/><circle cx="40.6" cy="35" r="4.8" stroke="#3B3E40" stroke-width="2.4"/><circle cx="15.6" cy="35" r="4.8" stroke="#3B3E40" stroke-width="2.4"/></svg>