<svg width="16" height="12" viewBox="0 0 16 12" xmlns="http://www.w3.org/2000/svg" xmlns:xlink="http://www.w3.org/1999/xlink"><defs><path d="M15.2681944 4.1352441c-.1744722-.692871-.6885277-1.2385547-1.3412222-1.4237402C12.7439167 2.375 8 2.375 8 2.375s-4.7438889 0-5.9269722.336504c-.6526945.1852147-1.16675.730869-1.3412222 1.4237401-.317 1.2558692-.317 3.876123-.317 3.876123s0 2.620254.317 3.8761231c.1744722.6928711.6885277 1.2158203 1.3412222 1.4010059C3.256111 13.625 8 13.625 8 13.625s4.7438889 0 5.9269722-.3365039c.6526945-.1851856 1.16675-.7081348 1.3412222-1.4010059.317-1.2558691.317-3.876123.317-3.876123s0-2.620254-.317-3.876123zm-8.8197222 6.2551172V5.632373l3.9649722 2.3790528-3.9649722 2.3789355z" id="a"/></defs><g transform="translate(0 -2)" fill="none" fill-rule="evenodd"><mask id="b" fill="#fff"><use xlink:href="#a"/></mask><g mask="url(#b)" fill="#6C7073"><path d="M0 0h16v16H0z"/></g></g></svg>