<svg width="285" height="28" viewBox="0 0 285 28" xmlns="http://www.w3.org/2000/svg" xmlns:xlink="http://www.w3.org/1999/xlink"><defs><path id="a" d="M0 0h38.545082v28H0z"/></defs><g fill="none" fill-rule="evenodd"><path d="M4.740862 23.799451h3.3459394c3.5052699 0 6.1732739-.9207327 8.0461878-2.8406251 1.7526349-1.7583329 2.6289523-3.8382165 2.6289523-6.9580417 0-3.0806117-.8763174-5.1604951-2.6289523-6.95961-1.8323002-1.839897-4.5409179-2.7998432-8.0461878-2.7998432H4.7408619v19.55812zM8.3648485 28H0V0h8.3648486c4.4612526 0 8.0461878 1.2814968 10.7954191 3.8413534 2.7086177 2.5990701 4.101978 5.9588819 4.101978 10.1594308 0 4.1989805-1.3527467 7.5995743-4.0613643 10.1186489C16.45165 26.7200717 12.8667149 28 8.3648486 28zm27.1064834 0c-3.6646003 0-8.2851834-2.1598791-9.2411661-8.2003249l4.7799135-.040782c.7966523 2.7214161 2.7492313 3.2813848 4.2628706 3.2813848h.198382c2.1119095-.0799956 4.4612526-1.9606745 4.4612526-4.4797491V0h4.9001924v18.6797379C44.7531118 23.8386645 40.6105201 28 35.471332 28zm15.8533798 0h4.740862V.0015685h-4.740862V28zM98.3019715.0391608H96.48704l-2.9832542 2.4373707-9.3118001 7.7084195-9.313381-7.7084195L71.8969315.0391608H70.082V28h4.7966047V8.627916l9.313381 7.7084196 9.3118001-7.7084195V28h4.7981857V.0391608zM104.9498695 28h4.7981856V.0391608h-4.7981856V28zm23.7648522-4.5536224c-5.2819567 0-9.5552665-4.2340699-9.5552665-9.465958 0-5.1927273 4.2733098-9.4675245 9.5552665-9.4675245 2.7413686 0 5.2408518 1.1983217 6.9735739 3.0357483l3.5476536-2.875972C136.6558374 1.8374265 132.8662984 0 128.7147217 0c-7.7814398 0-14.1099857 6.2704336-14.1099857 13.9804196 0 7.7084196 6.3285459 13.9804196 14.1099857 13.9804196 4.7159761 0 8.9086576-2.3167552 11.4492455-5.8318322l-3.5081298-2.875972c-1.732722 2.5156923-4.6353477 4.1933426-7.9411157 4.1933426zM230.4745729 28h1.9639238V0h-1.9639238v28zm-32.449556-28v28h1.8035392l-.0801922-23.7992157L222.0826904 28h.6824202V.0407843h-1.8051116l-.2405768 23.84L198.746747 0h-.7217301zm-9.5900491 28h1.9639238V0h-1.9639238v28zm-8.6733417-28l-12.3102957 10.9207843-12.2694135-10.88L155.1426069 0H154.1803v28h1.885304V6.1207843l-.0801923-2.72 11.0665298 9.8384314.0393099.0407842h.6006556l11.2284868-9.8792156-.0408823 2.72V28h1.8444215V0h-.9623069z" fill="#141414" fill-rule="nonzero"/><g transform="translate(246.4549)"><mask id="b" fill="#fff"><use xlink:href="#a"/></mask><path d="M17.0000798 27.4230074v-1.6947269H5.3181376l-1.6697187.0770331-.3881296.0377612.3485556-.3066217c.491631-.4365206.94521-.8730411 1.359215-1.3110721l7.141586-7.5099663c.8021346-.8987188 1.3713915-1.5663385 1.7077706-2.002859.5951321-.7446528 1.086763-1.4636278 1.4748927-2.1569252.9573865-1.6690492 1.4368409-3.3124208 1.4368409-4.9301146 0-1.052785-.1750389-2.022495-.5251166-2.9076198-.3485557-.8866352-.847797-1.6494133-1.4946798-2.2913553C13.3638375 1.1154686 11.5784409.461443 9.3546862.461443c-2.2267989 0-4.063946.6676197-5.5129634 2.002859C2.4444559 3.671153 1.5646953 5.3145247 1.203963 7.3944168l-.039574.1540661 1.7853965.3081322.039574-.1163048c.6986334-3.697586 2.818887-5.5448685 6.3653267-5.5448685 1.8356251 0 3.2070166.4486042 4.1141746 1.347323.9041138.8987188 1.3576928 2.2596358 1.3576928 4.0827511 0 1.4636278-.3622544 2.8638166-1.0867631 4.199056-.6468828 1.1041403-1.578394 2.3230749-2.7945336 3.6583143L.039574 27.0378422 0 27.0756034v.347404h17.0000798zm13.5495309-14.6740391l-2.523604-1.1554956c-3.0791621-1.3865947-4.6179821-3.1976264-4.6179821-5.4315846 0-1.4122725.6012205-2.5043291 1.8051836-3.273149 1.2024409-.7703305 2.6834219-1.1554957 4.4429431-1.1554957 1.1643891 0 2.3683521.3202158 3.6103671.9621578.9832619.4365206 1.8630224 1.0784626 2.6392818 1.925826l.1552519.1540661 1.124815-1.27029-.1933038-.2703708c-.6210076-.641942-1.1065501-1.0980985-1.4551058-1.3669589-.3500778-.2703708-.7838698-.5211058-1.3013759-.752205-1.5007682-.7431422-3.0791622-1.1162238-4.7351822-1.1162238-1.086763 0-2.1857027.1676601-3.2983412.50147-1.1126383.3338098-1.9802222.782414-2.6012298 1.347323-1.3972668 1.2582063-2.0959003 2.7097505-2.0959003 4.3516116 0 2.9801213 1.9147731 5.3545515 5.7443193 7.1263115l2.5236039 1.1162238c4.5540549 2.1070803 6.8310823 4.2760891 6.8310823 6.5100473 0 1.6690492-.6210074 2.9665273-1.8630225 3.8909237-1.1385137.9500742-2.6271051 1.4243561-4.4642523 1.4243561-.9573864 0-1.952825-.1163048-2.9878374-.347404-1.0350125-.231099-1.9284718-.5256372-2.6788559-.8851246-.6210074-.3081322-1.1385136-.628348-1.5525187-.9636683-.4140049-.3322994-.9695631-.8715307-1.6681965-1.6176939-.1811272-.1525556-.3242024-.3066217-.4277036-.4621982l-1.2420151 1.3865947.1172.1933379c.5433816.6932974 1.1187267 1.2778422 1.7275576 1.752124.6073087.4757923 1.2998538.9062711 2.0761132 1.2899258C25.5039249 27.5378018 27.7292017 28 30.3167329 28c2.3546534 0 4.321177-.6404315 5.899571-1.925826 1.5525187-1.3095618 2.3287781-3.0163722 2.3287781-5.121942 0-1.6433716-.7321191-3.1523129-2.1933132-4.5253136-1.4627161-1.3730006-3.3957542-2.5994875-5.8021581-3.6779501z" fill="#141414" fill-rule="nonzero" mask="url(#b)"/></g></g></svg>